<svg version="1.1" preserveAspectRatio="xMinYMin slice" xmlns="http://www.w3.org/2000/svg" width="600" height="520" viewBox="0 0 600 520"><!--{"isLandscape":true,"mapWidth":20,"mapHeight":20,"palette":[]}--><path d="M345 0 L330 26 L360 26 Z" fill="#DDDDDD" rel="22"></path><path d="M345 0 L360 26 L375 0 Z" fill="#DDDDDD" rel="23"></path><path d="M375 0 L360 26 L390 26 Z" fill="#DDDDDD" rel="24"></path><path d="M375 0 L390 26 L405 0 Z" fill="#DDDDDD" rel="25"></path><path d="M405 0 L390 26 L420 26 Z" fill="#DDDDDD" rel="26"></path><path d="M405 0 L420 26 L435 0 Z" fill="#DDDDDD" rel="27"></path><path d="M0 26 L15 52 L30 26 Z" fill="#DDDDDD" rel="39"></path><path d="M30 26 L15 52 L45 52 Z" fill="#DDDDDD" rel="40"></path><path d="M30 26 L45 52 L60 26 Z" fill="#DDDDDD" rel="41"></path><path d="M60 26 L45 52 L75 52 Z" fill="#DDDDDD" rel="42"></path><path d="M90 26 L75 52 L105 52 Z" fill="#DDDDDD" rel="44"></path><path d="M300 26 L285 52 L315 52 Z" fill="#DDDDDD" rel="58"></path><path d="M300 26 L315 52 L330 26 Z" fill="#DDDDDD" rel="59"></path><path d="M330 26 L315 52 L345 52 Z" fill="#DDDDDD" rel="60"></path><path d="M330 26 L345 52 L360 26 Z" fill="#DDDDDD" rel="61"></path><path d="M360 26 L345 52 L375 52 Z" fill="#DDDDDD" rel="62"></path><path d="M360 26 L375 52 L390 26 Z" fill="#DDDDDD" rel="63"></path><path d="M15 52 L30 78 L45 52 Z" fill="#DDDDDD" rel="79"></path><path d="M45 52 L30 78 L60 78 Z" fill="#DDDDDD" rel="80"></path><path d="M45 52 L60 78 L75 52 Z" fill="#DDDDDD" rel="81"></path><path d="M75 52 L60 78 L90 78 Z" fill="#DDDDDD" rel="82"></path><path d="M75 52 L90 78 L105 52 Z" fill="#DDDDDD" rel="83"></path><path d="M105 52 L90 78 L120 78 Z" fill="#DDDDDD" rel="84"></path><path d="M105 52 L120 78 L135 52 Z" fill="#DDDDDD" rel="85"></path><path d="M135 52 L120 78 L150 78 Z" fill="#DDDDDD" rel="86"></path><path d="M135 52 L150 78 L165 52 Z" fill="#DDDDDD" rel="87"></path><path d="M165 52 L150 78 L180 78 Z" fill="#DDDDDD" rel="88"></path><path d="M285 52 L270 78 L300 78 Z" fill="#DDDDDD" rel="96"></path><path d="M285 52 L300 78 L315 52 Z" fill="#DDDDDD" rel="97"></path><path d="M315 52 L300 78 L330 78 Z" fill="#DDDDDD" rel="98"></path><path d="M315 52 L330 78 L345 52 Z" fill="#DDDDDD" rel="99"></path><path d="M345 52 L330 78 L360 78 Z" fill="#DDDDDD" rel="100"></path><path d="M345 52 L360 78 L375 52 Z" fill="#DDDDDD" rel="101"></path><path d="M120 78 L105 104 L135 104 Z" fill="#DDDDDD" rel="124"></path><path d="M120 78 L135 104 L150 78 Z" fill="#DDDDDD" rel="125"></path><path d="M150 78 L135 104 L165 104 Z" fill="#DDDDDD" rel="126"></path><path d="M150 78 L165 104 L180 78 Z" fill="#DDDDDD" rel="127"></path><path d="M180 78 L165 104 L195 104 Z" fill="#DDDDDD" rel="128"></path><path d="M180 78 L195 104 L210 78 Z" fill="#DDDDDD" rel="129"></path><path d="M210 78 L195 104 L225 104 Z" fill="#DDDDDD" rel="130"></path><path d="M240 78 L225 104 L255 104 Z" fill="#DDDDDD" rel="132"></path><path d="M240 78 L255 104 L270 78 Z" fill="#DDDDDD" rel="133"></path><path d="M270 78 L255 104 L285 104 Z" fill="#DDDDDD" rel="134"></path><path d="M270 78 L285 104 L300 78 Z" fill="#DDDDDD" rel="135"></path><path d="M300 78 L285 104 L315 104 Z" fill="#DDDDDD" rel="136"></path><path d="M300 78 L315 104 L330 78 Z" fill="#DDDDDD" rel="137"></path><path d="M330 78 L315 104 L345 104 Z" fill="#DDDDDD" rel="138"></path><path d="M330 78 L345 104 L360 78 Z" fill="#DDDDDD" rel="139"></path><path d="M195 104 L180 130 L210 130 Z" fill="#DDDDDD" rel="168"></path><path d="M195 104 L210 130 L225 104 Z" fill="#DDDDDD" rel="169"></path><path d="M225 104 L210 130 L240 130 Z" fill="#DDDDDD" rel="170"></path><path d="M225 104 L240 130 L255 104 Z" fill="#EEEEEE" rel="171"></path><path d="M255 104 L240 130 L270 130 Z" fill="#DDDDDD" rel="172"></path><path d="M255 104 L270 130 L285 104 Z" fill="#DDDDDD" rel="173"></path><path d="M285 104 L270 130 L300 130 Z" fill="#EEEEEE" rel="174"></path><path d="M285 104 L300 130 L315 104 Z" fill="#DDDDDD" rel="175"></path><path d="M315 104 L300 130 L330 130 Z" fill="#DDDDDD" rel="176"></path><path d="M210 130 L225 156 L240 130 Z" fill="#DDDDDD" rel="209"></path><path d="M240 130 L225 156 L255 156 Z" fill="#DDDDDD" rel="210"></path><path d="M240 130 L255 156 L270 130 Z" fill="#EEEEEE" rel="211"></path><path d="M270 130 L255 156 L285 156 Z" fill="#DDDDDD" rel="212"></path><path d="M270 130 L285 156 L300 130 Z" fill="#DDDDDD" rel="213"></path><path d="M300 130 L285 156 L315 156 Z" fill="#DDDDDD" rel="214"></path><path d="M300 130 L315 156 L330 130 Z" fill="#DDDDDD" rel="215"></path><path d="M225 156 L210 182 L240 182 Z" fill="#DDDDDD" rel="248"></path><path d="M225 156 L240 182 L255 156 Z" fill="#EEEEEE" rel="249"></path><path d="M255 156 L240 182 L270 182 Z" fill="#DDDDDD" rel="250"></path><path d="M255 156 L270 182 L285 156 Z" fill="#EEEEEE" rel="251"></path><path d="M285 156 L270 182 L300 182 Z" fill="#DDDDDD" rel="252"></path><path d="M285 156 L300 182 L315 156 Z" fill="#EEEEEE" rel="253"></path><path d="M315 156 L300 182 L330 182 Z" fill="#DDDDDD" rel="254"></path><path d="M315 156 L330 182 L345 156 Z" fill="#DDDDDD" rel="255"></path><path d="M345 156 L330 182 L360 182 Z" fill="#DDDDDD" rel="256"></path><path d="M345 156 L360 182 L375 156 Z" fill="#DDDDDD" rel="257"></path><path d="M375 156 L360 182 L390 182 Z" fill="#DDDDDD" rel="258"></path><path d="M180 182 L195 208 L210 182 Z" fill="#DDDDDD" rel="285"></path><path d="M210 182 L195 208 L225 208 Z" fill="#DDDDDD" rel="286"></path><path d="M210 182 L225 208 L240 182 Z" fill="#EEEEEE" rel="287"></path><path d="M240 182 L225 208 L255 208 Z" fill="#DDDDDD" rel="288"></path><path d="M240 182 L255 208 L270 182 Z" fill="#DDDDDD" rel="289"></path><path d="M270 182 L255 208 L285 208 Z" fill="#DDDDDD" rel="290"></path><path d="M270 182 L285 208 L300 182 Z" fill="#EEEEEE" rel="291"></path><path d="M300 182 L285 208 L315 208 Z" fill="#DDDDDD" rel="292"></path><path d="M330 182 L345 208 L360 182 Z" fill="#DDDDDD" rel="295"></path><path d="M360 182 L345 208 L375 208 Z" fill="#DDDDDD" rel="296"></path><path d="M360 182 L375 208 L390 182 Z" fill="#DDDDDD" rel="297"></path><path d="M390 182 L375 208 L405 208 Z" fill="#DDDDDD" rel="298"></path><path d="M390 182 L405 208 L420 182 Z" fill="#DDDDDD" rel="299"></path><path d="M420 182 L405 208 L435 208 Z" fill="#DDDDDD" rel="300"></path><path d="M165 208 L150 234 L180 234 Z" fill="#DDDDDD" rel="322"></path><path d="M195 208 L180 234 L210 234 Z" fill="#DDDDDD" rel="324"></path><path d="M195 208 L210 234 L225 208 Z" fill="#DDDDDD" rel="325"></path><path d="M255 208 L240 234 L270 234 Z" fill="#DDDDDD" rel="328"></path><path d="M255 208 L270 234 L285 208 Z" fill="#DDDDDD" rel="329"></path><path d="M285 208 L270 234 L300 234 Z" fill="#EEEEEE" rel="330"></path><path d="M285 208 L300 234 L315 208 Z" fill="#DDDDDD" rel="331"></path><path d="M375 208 L390 234 L405 208 Z" fill="#DDDDDD" rel="337"></path><path d="M405 208 L420 234 L435 208 Z" fill="#DDDDDD" rel="339"></path><path d="M435 208 L420 234 L450 234 Z" fill="#DDDDDD" rel="340"></path><path d="M435 208 L450 234 L465 208 Z" fill="#DDDDDD" rel="341"></path><path d="M465 208 L450 234 L480 234 Z" fill="#DDDDDD" rel="342"></path><path d="M150 234 L135 260 L165 260 Z" fill="#DDDDDD" rel="360"></path><path d="M150 234 L165 260 L180 234 Z" fill="#DDDDDD" rel="361"></path><path d="M180 234 L165 260 L195 260 Z" fill="#DDDDDD" rel="362"></path><path d="M180 234 L195 260 L210 234 Z" fill="#DDDDDD" rel="363"></path><path d="M240 234 L255 260 L270 234 Z" fill="#DDDDDD" rel="367"></path><path d="M270 234 L255 260 L285 260 Z" fill="#DDDDDD" rel="368"></path><path d="M270 234 L285 260 L300 234 Z" fill="#DDDDDD" rel="369"></path><path d="M450 234 L465 260 L480 234 Z" fill="#DDDDDD" rel="381"></path><path d="M105 260 L90 286 L120 286 Z" fill="#DDDDDD" rel="396"></path><path d="M105 260 L120 286 L135 260 Z" fill="#DDDDDD" rel="397"></path><path d="M135 260 L120 286 L150 286 Z" fill="#DDDDDD" rel="398"></path><path d="M135 260 L150 286 L165 260 Z" fill="#DDDDDD" rel="399"></path><path d="M255 260 L240 286 L270 286 Z" fill="#DDDDDD" rel="406"></path><path d="M255 260 L270 286 L285 260 Z" fill="#DDDDDD" rel="407"></path><path d="M285 260 L270 286 L300 286 Z" fill="#DDDDDD" rel="408"></path><path d="M120 286 L105 312 L135 312 Z" fill="#DDDDDD" rel="436"></path><path d="M120 286 L135 312 L150 286 Z" fill="#DDDDDD" rel="437"></path><path d="M240 286 L255 312 L270 286 Z" fill="#DDDDDD" rel="445"></path><path d="M270 286 L255 312 L285 312 Z" fill="#DDDDDD" rel="446"></path><path d="M270 286 L285 312 L300 286 Z" fill="#DDDDDD" rel="447"></path><path d="M105 312 L120 338 L135 312 Z" fill="#DDDDDD" rel="475"></path><path d="M255 312 L240 338 L270 338 Z" fill="#DDDDDD" rel="484"></path><path d="M255 312 L270 338 L285 312 Z" fill="#DDDDDD" rel="485"></path><path d="M285 312 L270 338 L300 338 Z" fill="#DDDDDD" rel="486"></path><path d="M240 338 L225 364 L255 364 Z" fill="#DDDDDD" rel="522"></path><path d="M240 338 L255 364 L270 338 Z" fill="#DDDDDD" rel="523"></path><path d="M270 338 L255 364 L285 364 Z" fill="#DDDDDD" rel="524"></path><path d="M270 338 L285 364 L300 338 Z" fill="#DDDDDD" rel="525"></path><path d="M225 364 L210 390 L240 390 Z" fill="#DDDDDD" rel="560"></path><path d="M225 364 L240 390 L255 364 Z" fill="#DDDDDD" rel="561"></path><path d="M255 364 L240 390 L270 390 Z" fill="#DDDDDD" rel="562"></path><path d="M255 364 L270 390 L285 364 Z" fill="#DDDDDD" rel="563"></path><path d="M285 364 L270 390 L300 390 Z" fill="#DDDDDD" rel="564"></path><path d="M210 390 L195 416 L225 416 Z" fill="#DDDDDD" rel="598"></path><path d="M210 390 L225 416 L240 390 Z" fill="#DDDDDD" rel="599"></path><path d="M240 390 L225 416 L255 416 Z" fill="#DDDDDD" rel="600"></path><path d="M240 390 L255 416 L270 390 Z" fill="#DDDDDD" rel="601"></path><path d="M270 390 L255 416 L285 416 Z" fill="#DDDDDD" rel="602"></path><path d="M270 390 L285 416 L300 390 Z" fill="#DDDDDD" rel="603"></path><path d="M300 390 L285 416 L315 416 Z" fill="#DDDDDD" rel="604"></path><path d="M195 416 L210 442 L225 416 Z" fill="#DDDDDD" rel="637"></path><path d="M225 416 L210 442 L240 442 Z" fill="#DDDDDD" rel="638"></path><path d="M225 416 L240 442 L255 416 Z" fill="#DDDDDD" rel="639"></path><path d="M255 416 L240 442 L270 442 Z" fill="#DDDDDD" rel="640"></path><path d="M255 416 L270 442 L285 416 Z" fill="#DDDDDD" rel="641"></path><path d="M285 416 L270 442 L300 442 Z" fill="#DDDDDD" rel="642"></path><path d="M285 416 L300 442 L315 416 Z" fill="#DDDDDD" rel="643"></path><path d="M210 442 L195 468 L225 468 Z" fill="#DDDDDD" rel="676"></path><path d="M210 442 L225 468 L240 442 Z" fill="#DDDDDD" rel="677"></path><path d="M240 442 L225 468 L255 468 Z" fill="#DDDDDD" rel="678"></path><path d="M240 442 L255 468 L270 442 Z" fill="#DDDDDD" rel="679"></path><path d="M270 442 L255 468 L285 468 Z" fill="#DDDDDD" rel="680"></path><path d="M270 442 L285 468 L300 442 Z" fill="#DDDDDD" rel="681"></path><path d="M300 442 L285 468 L315 468 Z" fill="#DDDDDD" rel="682"></path><path d="M165 468 L180 494 L195 468 Z" fill="#DDDDDD" rel="713"></path><path d="M195 468 L180 494 L210 494 Z" fill="#DDDDDD" rel="714"></path><path d="M195 468 L210 494 L225 468 Z" fill="#DDDDDD" rel="715"></path><path d="M225 468 L210 494 L240 494 Z" fill="#DDDDDD" rel="716"></path><path d="M225 468 L240 494 L255 468 Z" fill="#DDDDDD" rel="717"></path><path d="M255 468 L240 494 L270 494 Z" fill="#DDDDDD" rel="718"></path><path d="M255 468 L270 494 L285 468 Z" fill="#DDDDDD" rel="719"></path><path d="M285 468 L270 494 L300 494 Z" fill="#DDDDDD" rel="720"></path><path d="M285 468 L300 494 L315 468 Z" fill="#DDDDDD" rel="721"></path><path d="M315 468 L300 494 L330 494 Z" fill="#DDDDDD" rel="722"></path><path d="M315 468 L330 494 L345 468 Z" fill="#DDDDDD" rel="723"></path><path d="M345 468 L330 494 L360 494 Z" fill="#DDDDDD" rel="724"></path><path d="M180 494 L165 520 L195 520 Z" fill="#DDDDDD" rel="752"></path><path d="M180 494 L195 520 L210 494 Z" fill="#DDDDDD" rel="753"></path><path d="M210 494 L195 520 L225 520 Z" fill="#DDDDDD" rel="754"></path><path d="M210 494 L225 520 L240 494 Z" fill="#DDDDDD" rel="755"></path><path d="M240 494 L225 520 L255 520 Z" fill="#DDDDDD" rel="756"></path><path d="M240 494 L255 520 L270 494 Z" fill="#DDDDDD" rel="757"></path><path d="M270 494 L255 520 L285 520 Z" fill="#DDDDDD" rel="758"></path><path d="M270 494 L285 520 L300 494 Z" fill="#DDDDDD" rel="759"></path><path d="M300 494 L285 520 L315 520 Z" fill="#DDDDDD" rel="760"></path><path d="M300 494 L315 520 L330 494 Z" fill="#DDDDDD" rel="761"></path><path d="M330 494 L315 520 L345 520 Z" fill="#DDDDDD" rel="762"></path><path d="M330 494 L345 520 L360 494 Z" fill="#DDDDDD" rel="763"></path></svg>