<svg version="1.1" preserveAspectRatio="xMinYMin slice" xmlns="http://www.w3.org/2000/svg" width="600" height="520" viewBox="0 0 600 520"><!--{"isLandscape":true,"mapWidth":20,"mapHeight":20,"palette":["#11aaff","#E1C16E","#FFFFFF"]}--><path d="M15 208 L0 234 L30 234 Z" fill="#E1C16E" rel="312"></path><path d="M15 208 L30 234 L45 208 Z" fill="#E1C16E" rel="313"></path><path d="M45 208 L30 234 L60 234 Z" fill="#E1C16E" rel="314"></path><path d="M45 208 L60 234 L75 208 Z" fill="#E1C16E" rel="315"></path><path d="M75 208 L60 234 L90 234 Z" fill="#E1C16E" rel="316"></path><path d="M75 208 L90 234 L105 208 Z" fill="#E1C16E" rel="317"></path><path d="M105 208 L90 234 L120 234 Z" fill="#E1C16E" rel="318"></path><path d="M105 208 L120 234 L135 208 Z" fill="#E1C16E" rel="319"></path><path d="M135 208 L120 234 L150 234 Z" fill="#E1C16E" rel="320"></path><path d="M135 208 L150 234 L165 208 Z" fill="#E1C16E" rel="321"></path><path d="M165 208 L150 234 L180 234 Z" fill="#E1C16E" rel="322"></path><path d="M165 208 L180 234 L195 208 Z" fill="#E1C16E" rel="323"></path><path d="M195 208 L180 234 L210 234 Z" fill="#E1C16E" rel="324"></path><path d="M195 208 L210 234 L225 208 Z" fill="#E1C16E" rel="325"></path><path d="M225 208 L210 234 L240 234 Z" fill="#E3CC91" rel="326"></path><path d="M225 208 L240 234 L255 208 Z" fill="#E1C16E" rel="327"></path><path d="M255 208 L240 234 L270 234 Z" fill="#E1C16E" rel="328"></path><path d="M255 208 L270 234 L285 208 Z" fill="#E1C16E" rel="329"></path><path d="M285 208 L270 234 L300 234 Z" fill="#E1C16E" rel="330"></path><path d="M285 208 L300 234 L315 208 Z" fill="#E1C16E" rel="331"></path><path d="M315 208 L300 234 L330 234 Z" fill="#E1C16E" rel="332"></path><path d="M315 208 L330 234 L345 208 Z" fill="#E1C16E" rel="333"></path><path d="M345 208 L330 234 L360 234 Z" fill="#E3CC91" rel="334"></path><path d="M345 208 L360 234 L375 208 Z" fill="#E1C16E" rel="335"></path><path d="M375 208 L360 234 L390 234 Z" fill="#E1C16E" rel="336"></path><path d="M375 208 L390 234 L405 208 Z" fill="#E1C16E" rel="337"></path><path d="M405 208 L390 234 L420 234 Z" fill="#E1C16E" rel="338"></path><path d="M405 208 L420 234 L435 208 Z" fill="#E1C16E" rel="339"></path><path d="M435 208 L420 234 L450 234 Z" fill="#E1C16E" rel="340"></path><path d="M435 208 L450 234 L465 208 Z" fill="#E1C16E" rel="341"></path><path d="M465 208 L450 234 L480 234 Z" fill="#E1C16E" rel="342"></path><path d="M465 208 L480 234 L495 208 Z" fill="#E1C16E" rel="343"></path><path d="M495 208 L480 234 L510 234 Z" fill="#E1C16E" rel="344"></path><path d="M495 208 L510 234 L525 208 Z" fill="#E1C16E" rel="345"></path><path d="M525 208 L510 234 L540 234 Z" fill="#E1C16E" rel="346"></path><path d="M525 208 L540 234 L555 208 Z" fill="#E1C16E" rel="347"></path><path d="M555 208 L540 234 L570 234 Z" fill="#E1C16E" rel="348"></path><path d="M555 208 L570 234 L585 208 Z" fill="#E1C16E" rel="349"></path><path d="M585 208 L570 234 L600 234 Z" fill="#E1C16E" rel="350"></path><path d="M0 234 L15 260 L30 234 Z" fill="#E1C16E" rel="351"></path><path d="M30 234 L15 260 L45 260 Z" fill="#FFFFFF" rel="352"></path><path d="M30 234 L45 260 L60 234 Z" fill="#FFFFFF" rel="353"></path><path d="M60 234 L45 260 L75 260 Z" fill="#FFFFFF" rel="354"></path><path d="M60 234 L75 260 L90 234 Z" fill="#FFFFFF" rel="355"></path><path d="M90 234 L75 260 L105 260 Z" fill="#E1C16E" rel="356"></path><path d="M90 234 L105 260 L120 234 Z" fill="#E1C16E" rel="357"></path><path d="M120 234 L105 260 L135 260 Z" fill="#E1C16E" rel="358"></path><path d="M120 234 L135 260 L150 234 Z" fill="#E1C16E" rel="359"></path><path d="M150 234 L135 260 L165 260 Z" fill="#E1C16E" rel="360"></path><path d="M150 234 L165 260 L180 234 Z" fill="#E1C16E" rel="361"></path><path d="M180 234 L165 260 L195 260 Z" fill="#E1C16E" rel="362"></path><path d="M180 234 L195 260 L210 234 Z" fill="#E1C16E" rel="363"></path><path d="M210 234 L195 260 L225 260 Z" fill="#E3CC91" rel="364"></path><path d="M210 234 L225 260 L240 234 Z" fill="#E3CC91" rel="365"></path><path d="M240 234 L225 260 L255 260 Z" fill="#E3CC91" rel="366"></path><path d="M240 234 L255 260 L270 234 Z" fill="#E1C16E" rel="367"></path><path d="M270 234 L255 260 L285 260 Z" fill="#E1C16E" rel="368"></path><path d="M270 234 L285 260 L300 234 Z" fill="#E1C16E" rel="369"></path><path d="M300 234 L285 260 L315 260 Z" fill="#E1C16E" rel="370"></path><path d="M300 234 L315 260 L330 234 Z" fill="#E1C16E" rel="371"></path><path d="M330 234 L315 260 L345 260 Z" fill="#E3CC91" rel="372"></path><path d="M330 234 L345 260 L360 234 Z" fill="#E3CC91" rel="373"></path><path d="M360 234 L345 260 L375 260 Z" fill="#E3CC91" rel="374"></path><path d="M360 234 L375 260 L390 234 Z" fill="#E1C16E" rel="375"></path><path d="M390 234 L375 260 L405 260 Z" fill="#E1C16E" rel="376"></path><path d="M390 234 L405 260 L420 234 Z" fill="#E1C16E" rel="377"></path><path d="M420 234 L405 260 L435 260 Z" fill="#E1C16E" rel="378"></path><path d="M420 234 L435 260 L450 234 Z" fill="#E1C16E" rel="379"></path><path d="M450 234 L435 260 L465 260 Z" fill="#E1C16E" rel="380"></path><path d="M450 234 L465 260 L480 234 Z" fill="#E1C16E" rel="381"></path><path d="M480 234 L465 260 L495 260 Z" fill="#E1C16E" rel="382"></path><path d="M480 234 L495 260 L510 234 Z" fill="#E1C16E" rel="383"></path><path d="M510 234 L495 260 L525 260 Z" fill="#E1C16E" rel="384"></path><path d="M510 234 L525 260 L540 234 Z" fill="#FFFFFF" rel="385"></path><path d="M540 234 L525 260 L555 260 Z" fill="#FFFFFF" rel="386"></path><path d="M540 234 L555 260 L570 234 Z" fill="#FFFFFF" rel="387"></path><path d="M570 234 L555 260 L585 260 Z" fill="#FFFFFF" rel="388"></path><path d="M570 234 L585 260 L600 234 Z" fill="#E1C16E" rel="389"></path><path d="M15 260 L0 286 L30 286 Z" fill="#E1C16E" rel="390"></path><path d="M15 260 L30 286 L45 260 Z" fill="#FFFFFF" rel="391"></path><path d="M45 260 L30 286 L60 286 Z" fill="#FFFFFF" rel="392"></path><path d="M45 260 L60 286 L75 260 Z" fill="#FFFFFF" rel="393"></path><path d="M75 260 L60 286 L90 286 Z" fill="#FFFFFF" rel="394"></path><path d="M75 260 L90 286 L105 260 Z" fill="#E1C16E" rel="395"></path><path d="M105 260 L90 286 L120 286 Z" fill="#E1C16E" rel="396"></path><path d="M105 260 L120 286 L135 260 Z" fill="#E1C16E" rel="397"></path><path d="M135 260 L120 286 L150 286 Z" fill="#E1C16E" rel="398"></path><path d="M135 260 L150 286 L165 260 Z" fill="#E1C16E" rel="399"></path><path d="M165 260 L150 286 L180 286 Z" fill="#E1C16E" rel="400"></path><path d="M165 260 L180 286 L195 260 Z" fill="#E1C16E" rel="401"></path><path d="M195 260 L180 286 L210 286 Z" fill="#E3CC91" rel="402"></path><path d="M195 260 L210 286 L225 260 Z" fill="#E3CC91" rel="403"></path><path d="M225 260 L210 286 L240 286 Z" fill="#E3CC91" rel="404"></path><path d="M225 260 L240 286 L255 260 Z" fill="#E3CC91" rel="405"></path><path d="M255 260 L240 286 L270 286 Z" fill="#E3CC91" rel="406"></path><path d="M255 260 L270 286 L285 260 Z" fill="#E1C16E" rel="407"></path><path d="M285 260 L270 286 L300 286 Z" fill="#E3CC91" rel="408"></path><path d="M285 260 L300 286 L315 260 Z" fill="#E1C16E" rel="409"></path><path d="M315 260 L300 286 L330 286 Z" fill="#E3CC91" rel="410"></path><path d="M315 260 L330 286 L345 260 Z" fill="#E3CC91" rel="411"></path><path d="M345 260 L330 286 L360 286 Z" fill="#E3CC91" rel="412"></path><path d="M345 260 L360 286 L375 260 Z" fill="#E3CC91" rel="413"></path><path d="M375 260 L360 286 L390 286 Z" fill="#E3CC91" rel="414"></path><path d="M375 260 L390 286 L405 260 Z" fill="#E1C16E" rel="415"></path><path d="M405 260 L390 286 L420 286 Z" fill="#E1C16E" rel="416"></path><path d="M405 260 L420 286 L435 260 Z" fill="#E1C16E" rel="417"></path><path d="M435 260 L420 286 L450 286 Z" fill="#E1C16E" rel="418"></path><path d="M435 260 L450 286 L465 260 Z" fill="#E1C16E" rel="419"></path><path d="M465 260 L450 286 L480 286 Z" fill="#E1C16E" rel="420"></path><path d="M465 260 L480 286 L495 260 Z" fill="#E3C578" rel="421"></path><path d="M495 260 L480 286 L510 286 Z" fill="#E1C16E" rel="422"></path><path d="M495 260 L510 286 L525 260 Z" fill="#E1C16E" rel="423"></path><path d="M525 260 L510 286 L540 286 Z" fill="#FFFFFF" rel="424"></path><path d="M525 260 L540 286 L555 260 Z" fill="#FFFFFF" rel="425"></path><path d="M555 260 L540 286 L570 286 Z" fill="#FFFFFF" rel="426"></path><path d="M555 260 L570 286 L585 260 Z" fill="#FFFFFF" rel="427"></path><path d="M585 260 L570 286 L600 286 Z" fill="#E1C16E" rel="428"></path><path d="M0 286 L15 312 L30 286 Z" fill="#E1C16E" rel="429"></path><path d="M30 286 L15 312 L45 312 Z" fill="#FFFFFF" rel="430"></path><path d="M30 286 L45 312 L60 286 Z" fill="#FFFFFF" rel="431"></path><path d="M60 286 L45 312 L75 312 Z" fill="#FFFFFF" rel="432"></path><path d="M60 286 L75 312 L90 286 Z" fill="#FFFFFF" rel="433"></path><path d="M90 286 L75 312 L105 312 Z" fill="#E1C16E" rel="434"></path><path d="M90 286 L105 312 L120 286 Z" fill="#E1C16E" rel="435"></path><path d="M120 286 L105 312 L135 312 Z" fill="#E1C16E" rel="436"></path><path d="M120 286 L135 312 L150 286 Z" fill="#E1C16E" rel="437"></path><path d="M150 286 L135 312 L165 312 Z" fill="#E1C16E" rel="438"></path><path d="M150 286 L165 312 L180 286 Z" fill="#E1C16E" rel="439"></path><path d="M180 286 L165 312 L195 312 Z" fill="#E3CC91" rel="440"></path><path d="M180 286 L195 312 L210 286 Z" fill="#E3CC91" rel="441"></path><path d="M210 286 L195 312 L225 312 Z" fill="#E3CC91" rel="442"></path><path d="M210 286 L225 312 L240 286 Z" fill="#E3CC91" rel="443"></path><path d="M240 286 L225 312 L255 312 Z" fill="#E3CC91" rel="444"></path><path d="M240 286 L255 312 L270 286 Z" fill="#E3CC91" rel="445"></path><path d="M270 286 L255 312 L285 312 Z" fill="#E3CC91" rel="446"></path><path d="M270 286 L285 312 L300 286 Z" fill="#E3CC91" rel="447"></path><path d="M300 286 L285 312 L315 312 Z" fill="#E3CC91" rel="448"></path><path d="M300 286 L315 312 L330 286 Z" fill="#E3CC91" rel="449"></path><path d="M330 286 L315 312 L345 312 Z" fill="#E3CC91" rel="450"></path><path d="M330 286 L345 312 L360 286 Z" fill="#E3CC91" rel="451"></path><path d="M360 286 L345 312 L375 312 Z" fill="#E3CC91" rel="452"></path><path d="M360 286 L375 312 L390 286 Z" fill="#E3CC91" rel="453"></path><path d="M390 286 L375 312 L405 312 Z" fill="#E3CC91" rel="454"></path><path d="M390 286 L405 312 L420 286 Z" fill="#E1C16E" rel="455"></path><path d="M420 286 L405 312 L435 312 Z" fill="#E1C16E" rel="456"></path><path d="M420 286 L435 312 L450 286 Z" fill="#E1C16E" rel="457"></path><path d="M450 286 L435 312 L465 312 Z" fill="#E1C16E" rel="458"></path><path d="M450 286 L465 312 L480 286 Z" fill="#E1C16E" rel="459"></path><path d="M480 286 L465 312 L495 312 Z" fill="#E1C16E" rel="460"></path><path d="M480 286 L495 312 L510 286 Z" fill="#E1C16E" rel="461"></path><path d="M510 286 L495 312 L525 312 Z" fill="#E1C16E" rel="462"></path><path d="M510 286 L525 312 L540 286 Z" fill="#FFFFFF" rel="463"></path><path d="M540 286 L525 312 L555 312 Z" fill="#FFFFFF" rel="464"></path><path d="M540 286 L555 312 L570 286 Z" fill="#FFFFFF" rel="465"></path><path d="M570 286 L555 312 L585 312 Z" fill="#FFFFFF" rel="466"></path><path d="M570 286 L585 312 L600 286 Z" fill="#E1C16E" rel="467"></path><path d="M15 312 L0 338 L30 338 Z" fill="#E1C16E" rel="468"></path><path d="M15 312 L30 338 L45 312 Z" fill="#FFFFFF" rel="469"></path><path d="M45 312 L30 338 L60 338 Z" fill="#FFFFFF" rel="470"></path><path d="M45 312 L60 338 L75 312 Z" fill="#FFFFFF" rel="471"></path><path d="M75 312 L60 338 L90 338 Z" fill="#FFFFFF" rel="472"></path><path d="M75 312 L90 338 L105 312 Z" fill="#E1C16E" rel="473"></path><path d="M105 312 L90 338 L120 338 Z" fill="#E1C16E" rel="474"></path><path d="M105 312 L120 338 L135 312 Z" fill="#E1C16E" rel="475"></path><path d="M135 312 L120 338 L150 338 Z" fill="#E1C16E" rel="476"></path><path d="M135 312 L150 338 L165 312 Z" fill="#E1C16E" rel="477"></path><path d="M165 312 L150 338 L180 338 Z" fill="#E1C16E" rel="478"></path><path d="M165 312 L180 338 L195 312 Z" fill="#E3CC91" rel="479"></path><path d="M195 312 L180 338 L210 338 Z" fill="#E3CC91" rel="480"></path><path d="M195 312 L210 338 L225 312 Z" fill="#E3CC91" rel="481"></path><path d="M225 312 L210 338 L240 338 Z" fill="#E3CC91" rel="482"></path><path d="M225 312 L240 338 L255 312 Z" fill="#E3CC91" rel="483"></path><path d="M255 312 L240 338 L270 338 Z" fill="#E3CC91" rel="484"></path><path d="M255 312 L270 338 L285 312 Z" fill="#E3CC91" rel="485"></path><path d="M285 312 L270 338 L300 338 Z" fill="#E3CC91" rel="486"></path><path d="M285 312 L300 338 L315 312 Z" fill="#E3CC91" rel="487"></path><path d="M315 312 L300 338 L330 338 Z" fill="#E3CC91" rel="488"></path><path d="M315 312 L330 338 L345 312 Z" fill="#E3CC91" rel="489"></path><path d="M345 312 L330 338 L360 338 Z" fill="#E3CC91" rel="490"></path><path d="M345 312 L360 338 L375 312 Z" fill="#E3CC91" rel="491"></path><path d="M375 312 L360 338 L390 338 Z" fill="#E3CC91" rel="492"></path><path d="M375 312 L390 338 L405 312 Z" fill="#E3CC91" rel="493"></path><path d="M405 312 L390 338 L420 338 Z" fill="#E1C16E" rel="494"></path><path d="M405 312 L420 338 L435 312 Z" fill="#E1C16E" rel="495"></path><path d="M435 312 L420 338 L450 338 Z" fill="#E1C16E" rel="496"></path><path d="M435 312 L450 338 L465 312 Z" fill="#E1C16E" rel="497"></path><path d="M465 312 L450 338 L480 338 Z" fill="#E1C16E" rel="498"></path><path d="M465 312 L480 338 L495 312 Z" fill="#E1C16E" rel="499"></path><path d="M495 312 L480 338 L510 338 Z" fill="#E1C16E" rel="500"></path><path d="M495 312 L510 338 L525 312 Z" fill="#E1C16E" rel="501"></path><path d="M525 312 L510 338 L540 338 Z" fill="#FFFFFF" rel="502"></path><path d="M525 312 L540 338 L555 312 Z" fill="#FFFFFF" rel="503"></path><path d="M555 312 L540 338 L570 338 Z" fill="#FFFFFF" rel="504"></path><path d="M555 312 L570 338 L585 312 Z" fill="#FFFFFF" rel="505"></path><path d="M585 312 L570 338 L600 338 Z" fill="#E1C16E" rel="506"></path><path d="M0 338 L15 364 L30 338 Z" fill="#E1C16E" rel="507"></path><path d="M30 338 L15 364 L45 364 Z" fill="#E1C16E" rel="508"></path><path d="M30 338 L45 364 L60 338 Z" fill="#E1C16E" rel="509"></path><path d="M60 338 L45 364 L75 364 Z" fill="#E1C16E" rel="510"></path><path d="M60 338 L75 364 L90 338 Z" fill="#E1C16E" rel="511"></path><path d="M90 338 L75 364 L105 364 Z" fill="#E1C16E" rel="512"></path><path d="M90 338 L105 364 L120 338 Z" fill="#E1C16E" rel="513"></path><path d="M120 338 L105 364 L135 364 Z" fill="#E1C16E" rel="514"></path><path d="M120 338 L135 364 L150 338 Z" fill="#E1C16E" rel="515"></path><path d="M150 338 L135 364 L165 364 Z" fill="#E1C16E" rel="516"></path><path d="M150 338 L165 364 L180 338 Z" fill="#E1C16E" rel="517"></path><path d="M180 338 L165 364 L195 364 Z" fill="#E1C16E" rel="518"></path><path d="M180 338 L195 364 L210 338 Z" fill="#E1C16E" rel="519"></path><path d="M210 338 L195 364 L225 364 Z" fill="#E1C16E" rel="520"></path><path d="M210 338 L225 364 L240 338 Z" fill="#E1C16E" rel="521"></path><path d="M240 338 L225 364 L255 364 Z" fill="#E1C16E" rel="522"></path><path d="M240 338 L255 364 L270 338 Z" fill="#E1C16E" rel="523"></path><path d="M270 338 L255 364 L285 364 Z" fill="#E1C16E" rel="524"></path><path d="M270 338 L285 364 L300 338 Z" fill="#E1C16E" rel="525"></path><path d="M300 338 L285 364 L315 364 Z" fill="#E1C16E" rel="526"></path><path d="M300 338 L315 364 L330 338 Z" fill="#E1C16E" rel="527"></path><path d="M330 338 L315 364 L345 364 Z" fill="#E1C16E" rel="528"></path><path d="M330 338 L345 364 L360 338 Z" fill="#E1C16E" rel="529"></path><path d="M360 338 L345 364 L375 364 Z" fill="#E1C16E" rel="530"></path><path d="M360 338 L375 364 L390 338 Z" fill="#E1C16E" rel="531"></path><path d="M390 338 L375 364 L405 364 Z" fill="#E1C16E" rel="532"></path><path d="M390 338 L405 364 L420 338 Z" fill="#E1C16E" rel="533"></path><path d="M420 338 L405 364 L435 364 Z" fill="#E1C16E" rel="534"></path><path d="M420 338 L435 364 L450 338 Z" fill="#E1C16E" rel="535"></path><path d="M450 338 L435 364 L465 364 Z" fill="#E1C16E" rel="536"></path><path d="M450 338 L465 364 L480 338 Z" fill="#E1C16E" rel="537"></path><path d="M480 338 L465 364 L495 364 Z" fill="#E1C16E" rel="538"></path><path d="M480 338 L495 364 L510 338 Z" fill="#E1C16E" rel="539"></path><path d="M510 338 L495 364 L525 364 Z" fill="#E1C16E" rel="540"></path><path d="M510 338 L525 364 L540 338 Z" fill="#E1C16E" rel="541"></path><path d="M540 338 L525 364 L555 364 Z" fill="#E1C16E" rel="542"></path><path d="M540 338 L555 364 L570 338 Z" fill="#E1C16E" rel="543"></path><path d="M570 338 L555 364 L585 364 Z" fill="#E1C16E" rel="544"></path><path d="M570 338 L585 364 L600 338 Z" fill="#E1C16E" rel="545"></path></svg>